<mxfile host="app.diagrams.net" modified="2024-07-12T10:15:26.777Z" agent="Mozilla/5.0 (Macintosh; Intel Mac OS X 10_15_7) AppleWebKit/537.36 (KHTML, like Gecko) Chrome/126.0.0.0 Safari/537.36" version="24.6.5" etag="6c9xfl6YycPwcEiCL9Na" type="github">
  <diagram name="Page-1" id="8Fqonf_JkCXtNlqYTbwg">
    <mxGraphModel>
      <root>
        <mxCell id="0" />
        <mxCell id="1" parent="0" />
      </root>
    </mxGraphModel>
  </diagram>
</mxfile>
